<svg width="24" height="30" viewBox="0 0 24 30" fill="none" xmlns="http://www.w3.org/2000/svg">
<path fill-rule="evenodd" clip-rule="evenodd" d="M4.68052 0H14.7207L23.217 8.86861V26.0912C23.217 28.2482 21.4761 30 19.3192 30H4.68052C2.53453 30 0.782715 28.2482 0.782715 26.0912V3.8978C0.782677 1.75181 2.53453 0 4.68052 0Z" fill="#00733B"/>
<path opacity="0.302" fill-rule="evenodd" clip-rule="evenodd" d="M14.71 0V8.79197H23.2173L14.71 0Z" fill="white"/>
<path d="M10.1114 21.8431H8.65516L7.65883 20.1679L6.66246 21.8431H5.19531L6.92526 18.9307L5.40337 16.4015H6.87048L7.65879 17.7153L8.43615 16.4015H9.90329L8.39233 18.9416L10.1114 21.8431ZM10.626 21.8431V16.4015H12.0165V20.6606H14.3814V21.8431H10.626V21.8431ZM16.6807 21.9088C16.1332 21.9088 15.6515 21.7336 15.2355 21.3942C14.8303 21.0657 14.6004 20.6497 14.5676 20.157L15.761 19.8066C15.7939 20.0694 15.9033 20.2993 16.0895 20.4745C16.2866 20.6497 16.5055 20.7373 16.7464 20.7373C16.9435 20.7373 17.1077 20.6935 17.2391 20.6059C17.3595 20.5183 17.4252 20.3979 17.4252 20.2555C17.4252 20.1351 17.3705 20.0365 17.2719 19.9489C17.1734 19.8723 17.042 19.8066 16.8887 19.7519C16.7354 19.6971 16.5493 19.6424 16.3632 19.5986C16.1661 19.5439 15.969 19.4782 15.7829 19.3906C15.5858 19.3139 15.4106 19.2154 15.2573 19.0949C15.0931 18.9854 14.9727 18.8212 14.8741 18.6132C14.7756 18.4161 14.7208 18.1752 14.7208 17.9015C14.7208 17.4526 14.9069 17.0803 15.2902 16.7847C15.6734 16.4781 16.1332 16.3358 16.6697 16.3358C17.2062 16.3358 17.677 16.4672 18.0712 16.719C18.4653 16.9818 18.7171 17.3212 18.8157 17.7373L17.5675 18.2628C17.5128 18.0329 17.4033 17.8468 17.25 17.7044C17.0967 17.5731 16.8996 17.4964 16.6697 17.4964C16.4945 17.4964 16.3631 17.5402 16.2537 17.6059C16.1551 17.6716 16.1113 17.7702 16.1113 17.8906C16.1113 18.0001 16.177 18.0986 16.3084 18.1753C16.4398 18.2409 16.615 18.2957 16.812 18.3285C17.0091 18.3614 17.2281 18.4161 17.458 18.4928C17.6989 18.5804 17.9069 18.668 18.1149 18.7884C18.312 18.8979 18.4762 19.084 18.6076 19.3249C18.75 19.5768 18.8156 19.8724 18.8156 20.2118C18.8156 20.7154 18.6186 21.1315 18.2244 21.438C17.8302 21.7446 17.3158 21.9088 16.6807 21.9088Z" fill="white"/>
</svg>
