<svg width="22" height="24" viewBox="0 0 22 24" fill="none" xmlns="http://www.w3.org/2000/svg">
<path fill-rule="evenodd" clip-rule="evenodd" d="M8.88817 10.8L9.86692 13.5965C10.0859 14.2219 10.7704 14.5516 11.3959 14.3327C12.0215 14.1137 12.3511 13.4291 12.1322 12.8035L8.13038 1.3699C7.84321 0.549396 7.06885 0 6.19955 0C5.33024 0 4.55588 0.549395 4.2687 1.3699L0.266916 12.8035C0.0479783 13.4291 0.377592 14.1137 1.00313 14.3327C1.62866 14.5516 2.31324 14.2219 2.53218 13.5965L3.51092 10.8H8.88817ZM8.04817 8.4L6.19955 3.11822L4.35092 8.4H8.04817Z" fill="#B0B0B0"/>
<path fill-rule="evenodd" clip-rule="evenodd" d="M17.5995 6C18.3297 6 19.0165 6.18637 19.6147 6.51414C19.8315 6.20334 20.1918 6 20.5995 6C21.2623 6 21.7995 6.53726 21.7995 7.2V13.2C21.7995 13.8628 21.2623 14.4 20.5995 14.4C20.1918 14.4 19.8315 14.1967 19.6147 13.8859C19.0165 14.2136 18.3297 14.4 17.5995 14.4C15.2799 14.4 13.3995 12.5196 13.3995 10.2C13.3995 7.8804 15.2799 6 17.5995 6ZM17.5995 12C18.5936 12 19.3995 11.1941 19.3995 10.2C19.3995 9.20588 18.5936 8.4 17.5995 8.4C16.6055 8.4 15.7995 9.20588 15.7995 10.2C15.7995 11.1941 16.6055 12 17.5995 12Z" fill="#B0B0B0"/>
<path d="M1.39955 16.8C0.7368 16.8 0.199546 17.3372 0.199546 18C0.199546 18.6628 0.7368 19.2 1.39955 19.2H20.5995C21.2623 19.2 21.7995 18.6628 21.7995 18C21.7995 17.3372 21.2623 16.8 20.5995 16.8H1.39955Z" fill="#B0B0B0"/>
<path d="M1.39955 21.6C0.7368 21.6 0.199546 22.1372 0.199546 22.8C0.199546 23.4628 0.7368 24 1.39955 24H15.7995C16.4623 24 16.9995 23.4628 16.9995 22.8C16.9995 22.1372 16.4623 21.6 15.7995 21.6H1.39955Z" fill="#B0B0B0"/>
</svg>
