<svg width="24" height="30" viewBox="0 0 24 30" fill="none" xmlns="http://www.w3.org/2000/svg">
<path fill-rule="evenodd" clip-rule="evenodd" d="M4.68727 0H14.7173L23.218 8.86058V26.0945C23.218 28.2534 21.4714 30 19.3199 30H4.68727C2.52836 30 0.781738 28.2534 0.781738 26.0945V3.90553C0.7817 1.74662 2.52832 0 4.68727 0Z" fill="#212529"/>
<path opacity="0.302" fill-rule="evenodd" clip-rule="evenodd" d="M14.71 0V8.79311H23.2182L14.71 0Z" fill="white"/>
<path d="M6.44887 21.904V17.6387H4.88965V16.4543H9.39491V17.6387H7.8432V21.904H6.44887ZM14.4624 21.904H13.0006L12.0036 20.2324L11.0066 21.904H9.53732L11.269 18.9955L9.75475 16.4543H11.2165L12.0036 17.7736L12.7832 16.4543H14.2525L12.7383 19.003L14.4624 21.904ZM16.1565 21.904V17.6387H14.6048V16.4543H19.1101V17.6387H17.5508V21.904H16.1565Z" fill="white"/>
</svg>
