<svg width="23" height="30" viewBox="0 0 23 30" fill="none" xmlns="http://www.w3.org/2000/svg">
<path d="M3.90265 0H13.9404L22.4373 8.86494V26.0973C22.4373 28.2529 20.6902 30 18.5347 30H3.90265C1.74708 30 0 28.2529 0 26.0973V3.90265C0 1.74711 1.74708 0 3.90265 0Z" fill="#0263D1"/>
<path opacity="0.302" fill-rule="evenodd" clip-rule="evenodd" d="M13.9282 0V8.79212H22.4373L13.9282 0Z" fill="white"/>
<path d="M3.62354 21.406V16.4397H5.38278C5.73461 16.4397 6.06222 16.4923 6.36554 16.5894C6.66885 16.6905 6.94385 16.8361 7.19058 17.0302C7.43726 17.2243 7.63141 17.4832 7.77295 17.8067C7.91449 18.1302 7.9873 18.5023 7.9873 18.9229C7.9873 19.3435 7.91449 19.7156 7.77295 20.0391C7.63141 20.3626 7.43726 20.6215 7.19058 20.8156C6.94389 21.0097 6.66885 21.1553 6.36554 21.2564C6.06222 21.3535 5.73465 21.406 5.38278 21.406H3.62354ZM4.86511 20.3262H5.23313C5.4313 20.3262 5.61733 20.302 5.78313 20.2575C5.95298 20.209 6.10665 20.1321 6.25224 20.031C6.39783 19.9299 6.51106 19.7843 6.59194 19.5942C6.67689 19.4082 6.7173 19.1817 6.7173 18.9229C6.7173 18.6641 6.67685 18.4376 6.59194 18.2475C6.51106 18.0615 6.39783 17.9159 6.25224 17.8148C6.10665 17.7096 5.95298 17.6369 5.78313 17.5883C5.61733 17.5438 5.4313 17.5195 5.23313 17.5195H4.86511V20.3262ZM11.0002 21.4627C10.252 21.4627 9.63328 21.22 9.14393 20.7388C8.65458 20.2575 8.41191 19.6509 8.41191 18.9229C8.41191 18.195 8.65458 17.5883 9.14393 17.1071C9.63328 16.6258 10.252 16.3832 11.0002 16.3832C11.7362 16.3832 12.3469 16.6259 12.8363 17.1071C13.3216 17.5884 13.5642 18.195 13.5642 18.9229C13.5642 19.6509 13.3216 20.2575 12.8363 20.7388C12.3469 21.22 11.7362 21.4627 11.0002 21.4627ZM10.0458 19.9704C10.2925 20.2454 10.6079 20.3829 10.9921 20.3829C11.3763 20.3829 11.6877 20.2454 11.9344 19.9704C12.1811 19.6913 12.3024 19.3435 12.3024 18.9229C12.3024 18.5023 12.1811 18.1545 11.9344 17.8754C11.6877 17.6004 11.3763 17.4629 10.9921 17.4629C10.6079 17.4629 10.2925 17.6004 10.0458 17.8754C9.79908 18.1545 9.67369 18.5023 9.67369 18.9229C9.67369 19.3435 9.79908 19.6913 10.0458 19.9704ZM16.5165 21.4627C15.7926 21.4627 15.19 21.2362 14.7128 20.7913C14.2315 20.3424 13.993 19.7196 13.993 18.9229C13.993 18.1302 14.2356 17.5074 14.7209 17.0585C15.2103 16.6096 15.8048 16.3831 16.5166 16.3831C17.1596 16.3831 17.6853 16.5408 18.1019 16.8603C18.5144 17.1758 18.753 17.5964 18.8137 18.1221L17.56 18.3769C17.5074 18.1019 17.382 17.8795 17.1879 17.7137C16.9938 17.5478 16.7673 17.4629 16.5084 17.4629C16.1526 17.4629 15.8573 17.5883 15.6187 17.8431C15.3801 18.1019 15.2588 18.4578 15.2588 18.9229C15.2588 19.3879 15.3801 19.7438 15.6146 19.9986C15.8533 20.2574 16.1485 20.3828 16.5084 20.3828C16.7672 20.3828 16.9897 20.3101 17.1717 20.1645C17.3536 20.0189 17.4669 19.8248 17.5154 19.5821L18.7974 19.8733C18.6802 20.3748 18.4213 20.763 18.0169 21.042C17.6166 21.3211 17.1151 21.4627 16.5165 21.4627Z" fill="white"/>
</svg>
