<svg width="15" height="12" viewBox="0 0 15 12" fill="none" xmlns="http://www.w3.org/2000/svg">
<path fill-rule="evenodd" clip-rule="evenodd" d="M3.66885 0.181794C3.9199 0.424186 3.9199 0.81719 3.66885 1.05958L2.19485 2.48276H10.0714C12.7934 2.48276 15 4.61326 15 7.24138C15 9.86946 12.7934 12 10.0714 12H4.07143C3.71639 12 3.42858 11.7221 3.42858 11.3793C3.42858 11.0365 3.71639 10.7586 4.07143 10.7586H10.0714C12.0833 10.7586 13.7143 9.18389 13.7143 7.24138C13.7143 5.29886 12.0833 3.72414 10.0714 3.72414H2.19485L3.66885 5.14731C3.9199 5.3897 3.9199 5.78268 3.66885 6.02507C3.4178 6.26748 3.01076 6.26748 2.75971 6.02507L0.188286 3.54234C-0.0627621 3.29995 -0.0627621 2.90694 0.188286 2.66455L2.75971 0.181794C3.01076 -0.0605979 3.4178 -0.0605979 3.66885 0.181794Z" fill="#FFFFFF"/>
</svg>
