<svg width="23" height="23" viewBox="0 0 23 23" fill="none" xmlns="http://www.w3.org/2000/svg">
<path d="M19.8633 22.5H7.91016C6.45612 22.5 5.27344 21.3173 5.27344 19.8633V7.91016C5.27344 6.45612 6.45612 5.27344 7.91016 5.27344H19.8633C21.3173 5.27344 22.5 6.45612 22.5 7.91016V19.8633C22.5 21.3173 21.3173 22.5 19.8633 22.5ZM7.91016 7.03125C7.42552 7.03125 7.03125 7.42552 7.03125 7.91016V19.8633C7.03125 20.3479 7.42552 20.7422 7.91016 20.7422H19.8633C20.3479 20.7422 20.7422 20.3479 20.7422 19.8633V7.91016C20.7422 7.42552 20.3479 7.03125 19.8633 7.03125H7.91016ZM3.51562 15.4688H2.63672C2.15208 15.4688 1.75781 15.0745 1.75781 14.5898V2.63672C1.75781 2.15208 2.15208 1.75781 2.63672 1.75781H14.5898C15.0745 1.75781 15.4688 2.15208 15.4688 2.63672V3.47168H17.2266V2.63672C17.2266 1.18268 16.0439 0 14.5898 0H2.63672C1.18268 0 0 1.18268 0 2.63672V14.5898C0 16.0439 1.18268 17.2266 2.63672 17.2266H3.51562V15.4688Z" fill="white"/>
</svg>
