<svg width="19" height="16" viewBox="0 0 19 16" fill="none" xmlns="http://www.w3.org/2000/svg">
<path d="M16.659 2.91364H10.6454C10.4013 2.91364 10.1629 2.8139 9.99822 2.64437L8.12186 0.677499C7.67083 0.230131 7.05374 -0.00354133 6.42875 4.05678e-05H2.34101C1.05023 3.64103e-06 0 1.04507 0 2.32945V13.6705C0 14.9549 1.05023 16 2.34101 16H16.6676H16.6697C17.9598 15.9943 19.0057 14.9443 19 13.6634V5.24309C19 3.95866 17.9497 2.91364 16.659 2.91364ZM17.5682 13.6663C17.5703 14.1649 17.1644 14.5731 16.6662 14.5753H2.34101C1.83988 14.5753 1.43183 14.1692 1.43183 13.6705V2.32945C1.43183 1.8308 1.83988 1.42475 2.34101 1.42401H6.44738C6.45524 1.42401 6.46311 1.42401 6.47101 1.42401C6.71011 1.42401 6.94208 1.51876 7.09812 1.67264L8.96446 3.63024C9.40258 4.08045 10.0154 4.33834 10.6454 4.33834H16.659C17.1601 4.33834 17.5681 4.74439 17.5681 5.24305V13.6663H17.5682Z" fill="#2764E0"/>
</svg>
