<svg width="14" height="14" viewBox="0 0 14 14" fill="none" xmlns="http://www.w3.org/2000/svg">
<path d="M0.254006 0.254021C-0.0846687 0.592719 -0.0846687 1.14185 0.254006 1.48055L5.77354 7.00013L0.254271 12.5194C-0.0844041 12.8581 -0.0844041 13.4073 0.254271 13.746C0.592946 14.0847 1.14209 14.0847 1.48076 13.746L7.00003 8.22665L12.5192 13.7458C12.8579 14.0845 13.407 14.0845 13.7457 13.7458C14.0844 13.4072 14.0844 12.858 13.7457 12.5193L8.22658 7.00012L13.746 1.48068C14.0847 1.14199 14.0847 0.592848 13.746 0.254153C13.4073 -0.0845447 12.8581 -0.0845447 12.5195 0.254153L7.00009 5.7736L1.48055 0.254021C1.14182 -0.0846737 0.592734 -0.0846737 0.254006 0.254021Z" fill="#6C757D"/>
</svg>
