<svg width="39" height="49" viewBox="0 0 39 49" fill="none" xmlns="http://www.w3.org/2000/svg">
<path d="M29.2857 38.4663H9.71432C9.06047 38.4663 8.52529 38.9986 8.52529 39.6499C8.52529 40.3007 9.06047 40.8335 9.71432 40.8335H29.2977C29.9515 40.8335 30.4867 40.3007 30.4867 39.6499C30.4867 38.9986 29.9515 38.4663 29.2857 38.4663Z" fill="white"/>
<path d="M18.311 20.4876L13.4121 25.7311C12.9603 26.2043 12.2114 26.2399 11.7119 25.7901C11.2365 25.352 11.2008 24.5946 11.6526 24.1213L18.6204 16.6766C18.8461 16.44 19.1552 16.2979 19.4884 16.2979C19.8211 16.2979 20.1302 16.44 20.3563 16.6766L27.3241 24.1213C27.7759 24.5946 27.7402 25.3404 27.2644 25.7901C27.0387 26.0032 26.7412 26.1098 26.4558 26.1098C26.1351 26.1098 25.8256 25.9793 25.5879 25.7311L20.689 20.4876V33.4124C20.689 34.0632 20.1542 34.5959 19.5 34.5959C18.8461 34.5959 18.311 34.0632 18.311 33.4124V20.4876Z" fill="white"/>
<path fill-rule="evenodd" clip-rule="evenodd" d="M26.5272 0.3787C26.3015 0.142059 25.992 0 25.6713 0H6.46833C2.92489 0 0 2.89988 0 6.42669V42.5729C0 46.1001 2.92489 49 6.46833 49H32.5317C36.0751 49 39 46.1001 39 42.5729V13.8713C39 13.5637 38.8573 13.268 38.6552 13.0429L26.5272 0.3787ZM26.8719 4.17804L34.9931 12.6642H29.7138C28.1443 12.6642 26.8719 11.4096 26.8719 9.84733V4.17804ZM32.5317 46.6328H6.46833C4.24499 46.6328 2.37807 44.7984 2.37807 42.5729V6.42669C2.37807 4.21355 4.23298 2.36716 6.46833 2.36716H24.4939V9.84733C24.4939 12.7233 26.8246 15.0314 29.7138 15.0314H36.6219V42.5729C36.6219 44.7984 34.767 46.6328 32.5317 46.6328Z" fill="white"/>
</svg>
